<svg width="226" height="55" viewBox="0 0 226 55" fill="none" xmlns="http://www.w3.org/2000/svg">
<g filter="url(#filter0_d_2_10579)">
<path d="M13 16C13 12.4997 13 10.7495 13.6747 9.41256C14.2682 8.23655 15.2151 7.28042 16.3799 6.68121C17.7041 6 19.4375 6 22.9043 6H34.5419C38.0087 6 39.7421 6 41.0663 6.68121C42.2311 7.28042 43.178 8.23655 43.7715 9.41256C44.4462 10.7495 44.4462 12.4997 44.4462 16V28C44.4462 31.5003 44.4462 33.2505 43.7715 34.5874C43.178 35.7635 42.2311 36.7196 41.0663 37.3188C39.7421 38 38.0087 38 34.5419 38H22.9043C19.4375 38 17.7041 38 16.3799 37.3188C15.2151 36.7196 14.2682 35.7635 13.6747 34.5874C13 33.2505 13 31.5003 13 28V16Z" fill="url(#paint0_linear_2_10579)"/>
<g filter="url(#filter1_d_2_10579)">
<path fill-rule="evenodd" clip-rule="evenodd" d="M30.5707 11.5493C35.5504 11.2057 41.1514 12.3881 42.5705 21.2556C43.5864 27.6038 38.3553 33.7378 30.8867 34.9562C23.418 36.1746 16.5399 32.016 15.524 25.6678C14.0869 16.6879 18.6267 13.9146 23.7699 12.6416C24.0757 12.267 24.5184 11.9968 25.0382 11.912C25.4969 11.8372 25.9437 11.9185 26.3222 12.1162C26.6186 12.0644 26.9141 12.015 27.2078 11.9671C27.4545 11.9269 27.7067 11.8869 27.9636 11.8481C28.2611 11.5403 28.6597 11.3212 29.1182 11.2464C29.647 11.1602 30.1599 11.2814 30.5707 11.5493Z" fill="white"/>
</g>
<g filter="url(#filter2_d_2_10579)">
<path d="M25.5979 9.5027C26.0622 10.9269 26.2227 11.7188 26.3918 12.9866C24.615 13.2764 22.3484 11.7713 22.0809 11.5763C21.8133 11.3814 21.1499 11.4555 21.2297 11.9538C21.3094 12.4521 22.0708 13.6233 24.6854 14.5603C23.2453 15.477 21.7284 15.2813 21.3007 15.3511C20.9663 15.3715 20.3449 15.9189 20.836 16.245C21.7426 16.847 24.0884 16.7371 25.4119 16.1462C25.3876 16.6274 24.872 17.8364 24.7577 18.8096C24.6433 19.7827 25.3841 19.5596 25.7089 19.268C26.0336 18.9764 26.7086 18.764 27.9826 15.9654C30.1601 17.7578 32.354 17.3317 32.9134 17.2405C33.4727 17.1492 33.5362 16.4912 33.1424 16.3509C32.7486 16.2106 32.0034 16.1958 30.7794 15.5092C33.3575 14.9523 34.2117 13.9607 34.4876 13.5748C34.7634 13.1889 34.3164 12.7164 33.8006 12.8688C33.2848 13.0211 32.0135 14.1489 30.1802 13.6639C32.0269 12.5445 32.571 11.0922 32.8043 10.4406C33.0377 9.78891 32.0473 9.50733 31.8478 9.94893C31.6484 10.3905 29.8795 12.4176 28.1685 12.6967C27.9486 11.744 27.7326 9.97258 27.7154 9.02092C27.7105 8.74965 25.9958 8.8242 25.5979 9.5027Z" fill="#00428E"/>
</g>
</g>
<path d="M219.7 28.125V18.9205H222.152V20.5265H222.247C222.413 19.9552 222.692 19.5237 223.083 19.2321C223.475 18.9365 223.926 18.7886 224.437 18.7886C224.563 18.7886 224.7 18.7966 224.846 18.8126C224.993 18.8286 225.121 18.8506 225.232 18.8785V21.1437C225.113 21.1077 224.949 21.0758 224.739 21.0478C224.53 21.0199 224.338 21.0059 224.164 21.0059C223.792 21.0059 223.459 21.0878 223.166 21.2516C222.878 21.4114 222.648 21.6351 222.478 21.9227C222.312 22.2104 222.229 22.542 222.229 22.9175V28.125H219.7Z" fill="black"/>
<path d="M214.033 28.3048C213.095 28.3048 212.288 28.113 211.612 27.7295C210.939 27.342 210.421 26.7947 210.057 26.0875C209.693 25.3764 209.511 24.5355 209.511 23.5647C209.511 22.6178 209.693 21.7869 210.057 21.0718C210.421 20.3567 210.933 19.7994 211.594 19.3999C212.259 19.0003 213.038 18.8006 213.932 18.8006C214.534 18.8006 215.094 18.8985 215.612 19.0942C216.134 19.286 216.589 19.5756 216.977 19.9632C217.369 20.3507 217.673 20.8381 217.891 21.4253C218.109 22.0086 218.217 22.6918 218.217 23.4748V24.1759H210.52V22.5939H215.837C215.837 22.2263 215.758 21.9007 215.6 21.6171C215.442 21.3334 215.222 21.1117 214.941 20.9519C214.664 20.7881 214.342 20.7062 213.974 20.7062C213.59 20.7062 213.25 20.7961 212.953 20.9759C212.66 21.1517 212.431 21.3894 212.264 21.689C212.098 21.9846 212.013 22.3142 212.009 22.6778V24.1819C212.009 24.6373 212.092 25.0308 212.259 25.3624C212.429 25.694 212.668 25.9497 212.977 26.1295C213.285 26.3093 213.651 26.3991 214.075 26.3991C214.356 26.3991 214.613 26.3592 214.846 26.2793C215.08 26.1994 215.28 26.0795 215.446 25.9197C215.612 25.7599 215.739 25.5642 215.826 25.3325L218.164 25.4883C218.045 26.0556 217.802 26.551 217.434 26.9744C217.07 27.3939 216.599 27.7215 216.021 27.9572C215.448 28.1889 214.785 28.3048 214.033 28.3048Z" fill="black"/>
<path d="M208.497 18.9205V20.8381H203.007V18.9205H208.497ZM204.253 16.7152H206.781V25.2965C206.781 25.5322 206.817 25.716 206.888 25.8478C206.959 25.9757 207.058 26.0656 207.185 26.1175C207.315 26.1694 207.466 26.1954 207.636 26.1954C207.755 26.1954 207.873 26.1854 207.992 26.1655C208.111 26.1415 208.202 26.1235 208.265 26.1115L208.663 28.0112C208.536 28.0511 208.358 28.097 208.129 28.149C207.899 28.2049 207.62 28.2389 207.292 28.2509C206.682 28.2748 206.148 28.1929 205.689 28.0052C205.234 27.8174 204.88 27.5258 204.627 27.1302C204.374 26.7347 204.249 26.2354 204.253 25.6321V16.7152Z" fill="black"/>
<path d="M195.946 22.8036V28.125H193.418V18.9204H195.827V20.5444H195.934C196.136 20.0091 196.474 19.5856 196.949 19.274C197.424 18.9584 198 18.8006 198.676 18.8006C199.309 18.8006 199.861 18.9404 200.332 19.2201C200.803 19.4997 201.169 19.8992 201.43 20.4186C201.691 20.9339 201.822 21.5492 201.822 22.2643V28.125H199.294V22.7197C199.297 22.1564 199.155 21.717 198.866 21.4014C198.577 21.0818 198.18 20.922 197.673 20.922C197.333 20.922 197.032 20.9959 196.771 21.1437C196.514 21.2915 196.312 21.5072 196.166 21.7909C196.023 22.0705 195.95 22.4081 195.946 22.8036Z" fill="black"/>
<path d="M189.034 24.2059V18.9205H191.562V28.125H189.135V26.4531H189.04C188.834 26.9924 188.492 27.4259 188.013 27.7535C187.538 28.0811 186.959 28.2449 186.274 28.2449C185.665 28.2449 185.129 28.105 184.666 27.8254C184.203 27.5457 183.841 27.1482 183.58 26.6329C183.322 26.1175 183.192 25.5003 183.188 24.7812V18.9205H185.716V24.3257C185.72 24.8691 185.865 25.2985 186.149 25.6141C186.434 25.9297 186.816 26.0876 187.295 26.0876C187.6 26.0876 187.885 26.0176 188.15 25.8778C188.415 25.734 188.628 25.5223 188.791 25.2426C188.957 24.963 189.038 24.6174 189.034 24.2059Z" fill="black"/>
<path d="M177.224 28.3048C176.302 28.3048 175.505 28.107 174.832 27.7115C174.163 27.312 173.647 26.7567 173.283 26.0456C172.919 25.3305 172.737 24.5015 172.737 23.5587C172.737 22.6079 172.919 21.7769 173.283 21.0658C173.647 20.3507 174.163 19.7954 174.832 19.3999C175.505 19.0003 176.302 18.8006 177.224 18.8006C178.146 18.8006 178.941 19.0003 179.61 19.3999C180.282 19.7954 180.801 20.3507 181.165 21.0658C181.529 21.7769 181.711 22.6079 181.711 23.5587C181.711 24.5015 181.529 25.3305 181.165 26.0456C180.801 26.7567 180.282 27.312 179.61 27.7115C178.941 28.107 178.146 28.3048 177.224 28.3048ZM177.236 26.3272C177.655 26.3272 178.005 26.2074 178.286 25.9677C178.567 25.724 178.779 25.3924 178.921 24.9729C179.068 24.5534 179.141 24.076 179.141 23.5407C179.141 23.0054 179.068 22.528 178.921 22.1085C178.779 21.689 178.567 21.3574 178.286 21.1137C178.005 20.87 177.655 20.7482 177.236 20.7482C176.812 20.7482 176.456 20.87 176.167 21.1137C175.883 21.3574 175.667 21.689 175.52 22.1085C175.378 22.528 175.307 23.0054 175.307 23.5407C175.307 24.076 175.378 24.5534 175.52 24.9729C175.667 25.3924 175.883 25.724 176.167 25.9677C176.456 26.2074 176.812 26.3272 177.236 26.3272Z" fill="black"/>
<path d="M171.477 20.1489H168.877C168.829 19.8093 168.732 19.5077 168.586 19.244C168.44 18.9764 168.252 18.7487 168.022 18.5609C167.793 18.3731 167.528 18.2293 167.227 18.1294C166.93 18.0296 166.608 17.9796 166.259 17.9796C165.63 17.9796 165.082 18.1374 164.615 18.453C164.149 18.7646 163.786 19.2201 163.529 19.8193C163.272 20.4146 163.144 21.1377 163.144 21.9886C163.144 22.8635 163.272 23.5986 163.529 24.1939C163.79 24.7891 164.154 25.2386 164.621 25.5422C165.088 25.8458 165.628 25.9976 166.242 25.9976C166.586 25.9976 166.904 25.9517 167.197 25.8598C167.494 25.7679 167.757 25.6341 167.987 25.4583C168.216 25.2785 168.406 25.0608 168.556 24.8051C168.711 24.5494 168.818 24.2578 168.877 23.9302L171.477 23.9422C171.409 24.5055 171.241 25.0488 170.972 25.5722C170.707 26.0915 170.349 26.5569 169.898 26.9684C169.451 27.3759 168.916 27.6995 168.295 27.9392C167.678 28.1749 166.98 28.2928 166.2 28.2928C165.116 28.2928 164.147 28.0451 163.292 27.5497C162.441 27.0543 161.769 26.3372 161.274 25.3984C160.783 24.4596 160.538 23.323 160.538 21.9886C160.538 20.6503 160.787 19.5117 161.286 18.5729C161.784 17.6341 162.461 16.9189 163.316 16.4276C164.17 15.9322 165.132 15.6845 166.2 15.6845C166.904 15.6845 167.557 15.7844 168.159 15.9841C168.764 16.1839 169.3 16.4755 169.767 16.859C170.234 17.2385 170.614 17.704 170.907 18.2553C171.204 18.8066 171.393 19.4378 171.477 20.1489Z" fill="black"/>
<path d="M151.336 28.3048C150.398 28.3048 149.591 28.113 148.914 27.7295C148.242 27.342 147.723 26.7947 147.359 26.0875C146.995 25.3764 146.813 24.5355 146.813 23.5647C146.813 22.6178 146.995 21.7869 147.359 21.0718C147.723 20.3567 148.236 19.7994 148.896 19.3999C149.561 19.0003 150.341 18.8006 151.235 18.8006C151.836 18.8006 152.396 18.8985 152.915 19.0942C153.437 19.286 153.892 19.5756 154.28 19.9632C154.671 20.3507 154.976 20.8381 155.194 21.4253C155.411 22.0086 155.52 22.6918 155.52 23.4748V24.1759H147.822V22.5939H153.14C153.14 22.2263 153.061 21.9007 152.903 21.6171C152.744 21.3334 152.525 21.1117 152.244 20.9519C151.967 20.7881 151.644 20.7062 151.277 20.7062C150.893 20.7062 150.552 20.7961 150.256 20.9759C149.963 21.1517 149.733 21.3894 149.567 21.689C149.401 21.9846 149.316 22.3142 149.312 22.6778V24.1819C149.312 24.6373 149.395 25.0308 149.561 25.3624C149.731 25.694 149.971 25.9497 150.279 26.1295C150.588 26.3093 150.954 26.3991 151.377 26.3991C151.658 26.3991 151.916 26.3592 152.149 26.2793C152.382 26.1994 152.582 26.0795 152.748 25.9197C152.915 25.7599 153.041 25.5642 153.128 25.3325L155.467 25.4883C155.348 26.0556 155.105 26.551 154.737 26.9744C154.373 27.3939 153.902 27.7215 153.324 27.9572C152.75 28.1889 152.088 28.3048 151.336 28.3048Z" fill="black"/>
<path d="M142.795 28.125V18.9205H145.323V28.125H142.795ZM144.065 17.7339C143.689 17.7339 143.366 17.6081 143.097 17.3564C142.832 17.1007 142.7 16.7951 142.7 16.4396C142.7 16.088 142.832 15.7864 143.097 15.5347C143.366 15.279 143.689 15.1512 144.065 15.1512C144.441 15.1512 144.761 15.279 145.026 15.5347C145.295 15.7864 145.43 16.088 145.43 16.4396C145.43 16.7951 145.295 17.1007 145.026 17.3564C144.761 17.6081 144.441 17.7339 144.065 17.7339Z" fill="black"/>
<path d="M136.123 28.125V18.9205H138.574V20.5265H138.669C138.835 19.9552 139.114 19.5237 139.506 19.2321C139.898 18.9365 140.349 18.7886 140.859 18.7886C140.986 18.7886 141.122 18.7966 141.269 18.8126C141.415 18.8286 141.544 18.8506 141.654 18.8785V21.1437C141.536 21.1077 141.372 21.0758 141.162 21.0478C140.952 21.0199 140.76 21.0059 140.586 21.0059C140.214 21.0059 139.882 21.0878 139.589 21.2516C139.3 21.4114 139.071 21.6351 138.901 21.9227C138.734 22.2104 138.651 22.542 138.651 22.9175V28.125H136.123Z" fill="black"/>
<path d="M130.159 28.3048C129.237 28.3048 128.44 28.107 127.767 27.7115C127.098 27.312 126.582 26.7567 126.218 26.0456C125.854 25.3305 125.672 24.5015 125.672 23.5587C125.672 22.6079 125.854 21.7769 126.218 21.0658C126.582 20.3507 127.098 19.7954 127.767 19.3999C128.44 19.0003 129.237 18.8006 130.159 18.8006C131.081 18.8006 131.876 19.0003 132.545 19.3999C133.218 19.7954 133.736 20.3507 134.1 21.0658C134.464 21.7769 134.646 22.6079 134.646 23.5587C134.646 24.5015 134.464 25.3305 134.1 26.0456C133.736 26.7567 133.218 27.312 132.545 27.7115C131.876 28.107 131.081 28.3048 130.159 28.3048ZM130.171 26.3272C130.59 26.3272 130.94 26.2074 131.221 25.9677C131.502 25.724 131.714 25.3924 131.856 24.9729C132.003 24.5534 132.076 24.076 132.076 23.5407C132.076 23.0054 132.003 22.528 131.856 22.1085C131.714 21.689 131.502 21.3574 131.221 21.1137C130.94 20.87 130.59 20.7482 130.171 20.7482C129.747 20.7482 129.391 20.87 129.102 21.1137C128.818 21.3574 128.602 21.689 128.456 22.1085C128.313 22.528 128.242 23.0054 128.242 23.5407C128.242 24.076 128.313 24.5534 128.456 24.9729C128.602 25.3924 128.818 25.724 129.102 25.9677C129.391 26.2074 129.747 26.3272 130.171 26.3272Z" fill="black"/>
<path d="M124.182 15.8523V28.125H121.653V15.8523H124.182Z" fill="black"/>
<path d="M114.725 28.2988C114.143 28.2988 113.625 28.1969 113.17 27.9932C112.715 27.7854 112.355 27.4798 112.09 27.0763C111.828 26.6688 111.698 26.1614 111.698 25.5542C111.698 25.0428 111.791 24.6134 111.977 24.2658C112.163 23.9182 112.416 23.6386 112.737 23.4268C113.057 23.2151 113.421 23.0553 113.829 22.9474C114.24 22.8396 114.671 22.7637 115.123 22.7197C115.653 22.6638 116.08 22.6119 116.405 22.5639C116.729 22.512 116.964 22.4361 117.111 22.3362C117.257 22.2363 117.33 22.0885 117.33 21.8927V21.8568C117.33 21.4773 117.212 21.1836 116.974 20.9759C116.741 20.7681 116.408 20.6643 115.977 20.6643C115.522 20.6643 115.16 20.7662 114.891 20.9699C114.622 21.1696 114.444 21.4213 114.357 21.725L112.018 21.5332C112.137 20.9739 112.371 20.4905 112.719 20.083C113.067 19.6715 113.516 19.3559 114.066 19.1362C114.62 18.9125 115.261 18.8006 115.989 18.8006C116.496 18.8006 116.98 18.8605 117.443 18.9804C117.91 19.1002 118.324 19.286 118.684 19.5377C119.048 19.7894 119.335 20.113 119.544 20.5085C119.754 20.9 119.859 21.3694 119.859 21.9167V28.125H117.461V26.8486H117.39C117.243 27.1362 117.048 27.3899 116.802 27.6096C116.557 27.8254 116.262 27.9952 115.918 28.119C115.574 28.2389 115.176 28.2988 114.725 28.2988ZM115.449 26.537C115.821 26.537 116.149 26.4631 116.434 26.3152C116.719 26.1634 116.943 25.9597 117.105 25.704C117.267 25.4483 117.348 25.1587 117.348 24.8351V23.8583C117.269 23.9102 117.16 23.9582 117.022 24.0021C116.887 24.0421 116.735 24.08 116.565 24.116C116.395 24.1479 116.224 24.1779 116.054 24.2059C115.884 24.2298 115.73 24.2518 115.591 24.2718C115.295 24.3157 115.035 24.3856 114.814 24.4815C114.592 24.5774 114.42 24.7072 114.298 24.871C114.175 25.0308 114.114 25.2306 114.114 25.4703C114.114 25.8179 114.238 26.0835 114.487 26.2673C114.741 26.4471 115.061 26.537 115.449 26.537Z" fill="black"/>
<path d="M110.497 20.1489H107.897C107.85 19.8093 107.753 19.5077 107.607 19.244C107.46 18.9764 107.272 18.7487 107.043 18.5609C106.813 18.3731 106.548 18.2293 106.247 18.1294C105.951 18.0296 105.628 17.9796 105.28 17.9796C104.651 17.9796 104.103 18.1374 103.636 18.453C103.169 18.7646 102.807 19.2201 102.55 19.8193C102.293 20.4146 102.164 21.1377 102.164 21.9886C102.164 22.8635 102.293 23.5986 102.55 24.1939C102.811 24.7891 103.175 25.2386 103.642 25.5422C104.109 25.8458 104.649 25.9976 105.262 25.9976C105.606 25.9976 105.925 25.9517 106.218 25.8598C106.514 25.7679 106.778 25.6341 107.007 25.4583C107.237 25.2785 107.426 25.0608 107.577 24.8051C107.731 24.5494 107.838 24.2578 107.897 23.9302L110.497 23.9422C110.43 24.5055 110.262 25.0488 109.992 25.5722C109.727 26.0915 109.369 26.5569 108.918 26.9684C108.471 27.3759 107.937 27.6995 107.316 27.9392C106.698 28.1749 106 28.2928 105.221 28.2928C104.136 28.2928 103.167 28.0451 102.312 27.5497C101.462 27.0543 100.789 26.3372 100.294 25.3984C99.8037 24.4596 99.5584 23.323 99.5584 21.9886C99.5584 20.6503 99.8077 19.5117 100.306 18.5729C100.805 17.6341 101.481 16.9189 102.336 16.4276C103.191 15.9322 104.152 15.6845 105.221 15.6845C105.925 15.6845 106.578 15.7844 107.179 15.9841C107.785 16.1839 108.321 16.4755 108.788 16.859C109.255 17.2385 109.634 17.704 109.927 18.2553C110.224 18.8066 110.414 19.4378 110.497 20.1489Z" fill="black"/>
<path d="M94.3907 21.5452L92.076 21.689C92.0364 21.4893 91.9514 21.3095 91.8208 21.1497C91.6902 20.9859 91.5181 20.856 91.3044 20.7602C91.0947 20.6603 90.8435 20.6103 90.5507 20.6103C90.1589 20.6103 89.8285 20.6942 89.5595 20.862C89.2904 21.0258 89.1559 21.2456 89.1559 21.5212C89.1559 21.7409 89.2429 21.9267 89.417 22.0785C89.5911 22.2303 89.8899 22.3522 90.3132 22.4441L91.9632 22.7796C92.8496 22.9634 93.5103 23.259 93.9456 23.6665C94.3808 24.074 94.5985 24.6094 94.5985 25.2725C94.5985 25.8758 94.4224 26.4051 94.0702 26.8606C93.722 27.316 93.2433 27.6716 92.6339 27.9272C92.0285 28.1789 91.3301 28.3048 90.5388 28.3048C89.332 28.3048 88.3705 28.0511 87.6543 27.5437C86.9421 27.0324 86.5246 26.3372 86.4019 25.4583L88.8888 25.3265C88.964 25.698 89.146 25.9817 89.4348 26.1774C89.7237 26.3692 90.0936 26.4651 90.5447 26.4651C90.9879 26.4651 91.344 26.3792 91.6131 26.2074C91.8861 26.0316 92.0246 25.8059 92.0285 25.5302C92.0246 25.2985 91.9276 25.1087 91.7377 24.9609C91.5478 24.8091 91.255 24.6933 90.8593 24.6134L89.2805 24.2958C88.3902 24.116 87.7275 23.8044 87.2922 23.3609C86.8609 22.9175 86.6453 22.3522 86.6453 21.665C86.6453 21.0738 86.8036 20.5644 87.1201 20.1369C87.4406 19.7095 87.8897 19.3799 88.4674 19.1482C89.049 18.9165 89.7296 18.8006 90.5091 18.8006C91.6605 18.8006 92.5666 19.0463 93.2274 19.5377C93.8922 20.0291 94.2799 20.6982 94.3907 21.5452Z" fill="black"/>
<path d="M86.4311 15.8523V17.1467C86.4311 17.5142 86.3599 17.8898 86.2174 18.2733C86.0789 18.6528 85.893 19.0124 85.6595 19.3519C85.4261 19.6875 85.1708 19.9732 84.8939 20.2089L83.778 19.5437C83.9759 19.2281 84.15 18.8785 84.3003 18.495C84.4547 18.1115 84.5318 17.666 84.5318 17.1587V15.8523H86.4311Z" fill="black"/>
<path d="M69.2348 28.125V18.9204H71.6445V20.5444H71.7513C71.9412 20.0051 72.2578 19.5796 72.7009 19.268C73.1441 18.9564 73.6743 18.8006 74.2916 18.8006C74.9167 18.8006 75.4489 18.9584 75.8881 19.274C76.3273 19.5856 76.6201 20.0091 76.7665 20.5444H76.8615C77.0475 20.0171 77.3838 19.5956 77.8705 19.28C78.3611 18.9604 78.9408 18.8006 79.6095 18.8006C80.4602 18.8006 81.1507 19.0743 81.6809 19.6216C82.2151 20.1649 82.4821 20.9359 82.4821 21.9347V28.125H79.9597V22.4381C79.9597 21.9267 79.8252 21.5432 79.5561 21.2875C79.287 21.0318 78.9507 20.904 78.5471 20.904C78.0881 20.904 77.73 21.0518 77.4728 21.3474C77.2156 21.6391 77.087 22.0246 77.087 22.504V28.125H74.6358V22.3841C74.6358 21.9327 74.5072 21.5731 74.25 21.3055C73.9968 21.0378 73.6624 20.904 73.247 20.904C72.966 20.904 72.7128 20.9759 72.4873 21.1197C72.2657 21.2595 72.0896 21.4573 71.959 21.713C71.8285 21.9647 71.7632 22.2603 71.7632 22.5999V28.125H69.2348Z" fill="black"/>
<path d="M64.8481 28.125V18.9205H67.3765V28.125H64.8481ZM66.1182 17.7339C65.7423 17.7339 65.4199 17.6081 65.1508 17.3564C64.8857 17.1007 64.7531 16.7951 64.7531 16.4396C64.7531 16.088 64.8857 15.7864 65.1508 15.5347C65.4199 15.279 65.7423 15.1512 66.1182 15.1512C66.4941 15.1512 66.8146 15.279 67.0797 15.5347C67.3488 15.7864 67.4833 16.088 67.4833 16.4396C67.4833 16.7951 67.3488 17.1007 67.0797 17.3564C66.8146 17.6081 66.4941 17.7339 66.1182 17.7339Z" fill="black"/>
<path d="M60.3977 15.8523H62.9379V24.4096C62.9379 25.2007 62.7619 25.8878 62.4097 26.4711C62.0615 27.0544 61.5768 27.5038 60.9556 27.8194C60.3344 28.135 59.6123 28.2928 58.7892 28.2928C58.0572 28.2928 57.3925 28.163 56.795 27.9033C56.2015 27.6396 55.7306 27.2401 55.3824 26.7048C55.0342 26.1655 54.8621 25.4883 54.8661 24.6733H57.4241C57.4321 24.9969 57.4973 25.2746 57.62 25.5063C57.7466 25.734 57.9187 25.9098 58.1364 26.0336C58.3579 26.1535 58.6191 26.2134 58.9198 26.2134C59.2364 26.2134 59.5034 26.1455 59.7211 26.0097C59.9426 25.8698 60.1108 25.6661 60.2256 25.3984C60.3403 25.1307 60.3977 24.8012 60.3977 24.4096V15.8523Z" fill="black"/>
<defs>
<filter id="filter0_d_2_10579" x="9" y="4" width="39.6938" height="40" filterUnits="userSpaceOnUse" color-interpolation-filters="sRGB">
<feFlood flood-opacity="0" result="BackgroundImageFix"/>
<feColorMatrix in="SourceAlpha" type="matrix" values="0 0 0 0 0 0 0 0 0 0 0 0 0 0 0 0 0 0 127 0" result="hardAlpha"/>
<feOffset dy="2"/>
<feGaussianBlur stdDeviation="2"/>
<feComposite in2="hardAlpha" operator="out"/>
<feColorMatrix type="matrix" values="0 0 0 0 0 0 0 0 0 0 0 0 0 0 0 0 0 0 0.12 0"/>
<feBlend mode="normal" in2="BackgroundImageFix" result="effect1_dropShadow_2_10579"/>
<feBlend mode="normal" in="SourceGraphic" in2="effect1_dropShadow_2_10579" result="shape"/>
</filter>
<filter id="filter1_d_2_10579" x="0.254639" y="0.218964" width="57.442" height="53.9492" filterUnits="userSpaceOnUse" color-interpolation-filters="sRGB">
<feFlood flood-opacity="0" result="BackgroundImageFix"/>
<feColorMatrix in="SourceAlpha" type="matrix" values="0 0 0 0 0 0 0 0 0 0 0 0 0 0 0 0 0 0 127 0" result="hardAlpha"/>
<feOffset dy="4"/>
<feGaussianBlur stdDeviation="7.5"/>
<feComposite in2="hardAlpha" operator="out"/>
<feColorMatrix type="matrix" values="0 0 0 0 0 0 0 0 0 0 0 0 0 0 0 0 0 0 0.15 0"/>
<feBlend mode="normal" in2="BackgroundImageFix" result="effect1_dropShadow_2_10579"/>
<feBlend mode="normal" in="SourceGraphic" in2="effect1_dropShadow_2_10579" result="shape"/>
</filter>
<filter id="filter2_d_2_10579" x="16.6539" y="8.87424" width="21.9178" height="18.643" filterUnits="userSpaceOnUse" color-interpolation-filters="sRGB">
<feFlood flood-opacity="0" result="BackgroundImageFix"/>
<feColorMatrix in="SourceAlpha" type="matrix" values="0 0 0 0 0 0 0 0 0 0 0 0 0 0 0 0 0 0 127 0" result="hardAlpha"/>
<feOffset dy="4"/>
<feGaussianBlur stdDeviation="2"/>
<feComposite in2="hardAlpha" operator="out"/>
<feColorMatrix type="matrix" values="0 0 0 0 0 0 0 0 0 0 0 0 0 0 0 0 0 0 0.05 0"/>
<feBlend mode="normal" in2="BackgroundImageFix" result="effect1_dropShadow_2_10579"/>
<feBlend mode="normal" in="SourceGraphic" in2="effect1_dropShadow_2_10579" result="shape"/>
</filter>
<linearGradient id="paint0_linear_2_10579" x1="28.7231" y1="6" x2="28.7231" y2="38" gradientUnits="userSpaceOnUse">
<stop stop-color="#66ACFC"/>
<stop offset="1" stop-color="#0A77F4"/>
</linearGradient>
</defs>
</svg>
