<svg width="86" height="23" viewBox="0 0 86 23" fill="none" xmlns="http://www.w3.org/2000/svg">
<g clip-path="url(#clip0_4_11409)">
<path d="M26.7795 11.0572C26.7795 14.8177 29.2283 17.4397 32.6217 17.4397C36.0151 17.4397 38.4639 14.8177 38.4639 11.0572C38.4639 7.29674 36.0151 4.67474 32.6217 4.67474C29.2283 4.67474 26.7795 7.29674 26.7795 11.0572ZM36.2249 11.0572C36.2249 13.7482 34.7382 15.4905 32.6217 15.4905C30.5052 15.4905 29.0184 13.7482 29.0184 11.0572C29.0184 8.36624 30.5052 6.62399 32.6217 6.62399C34.7382 6.62399 36.2249 8.36624 36.2249 11.0572Z" fill="black"/>
<path d="M44.7688 17.4398C47.3401 17.4398 48.8094 15.3008 48.8094 12.7305C48.8094 10.1603 47.3401 8.02126 44.7688 8.02126C43.5794 8.02126 42.7048 8.48701 42.1276 9.15976V8.19376H40.0286V20.355H42.1276V16.3013C42.7048 16.974 43.5794 17.4398 44.7688 17.4398ZM42.0751 12.4718C42.0751 10.764 43.0547 9.83251 44.349 9.83251C45.8708 9.83251 46.6929 11.0055 46.6929 12.7305C46.6929 14.4555 45.8708 15.6285 44.349 15.6285C43.0547 15.6285 42.0751 14.6798 42.0751 13.0065V12.4718Z" fill="black"/>
<path d="M54.4897 17.4398C56.3264 17.4398 57.7782 16.491 58.4253 14.904L56.6237 14.2313C56.3438 15.1628 55.5217 15.6803 54.4897 15.6803C53.1429 15.6803 52.1984 14.7315 52.0409 13.179H58.4778V12.489C58.4778 10.005 57.061 8.02126 54.4023 8.02126C51.7436 8.02126 50.0294 10.074 50.0294 12.7305C50.0294 15.525 51.866 17.4398 54.4897 17.4398ZM54.3848 9.76351C55.7142 9.76351 56.3438 10.626 56.3613 11.6265H52.1459C52.4607 10.4018 53.3003 9.76351 54.3848 9.76351Z" fill="black"/>
<path d="M60.0528 17.25H62.1518V11.937C62.1518 10.6433 63.1138 9.95326 64.0583 9.95326C65.2128 9.95326 65.6676 10.764 65.6676 11.8853V17.25H67.7665V11.2815C67.7665 9.33226 66.6121 8.02126 64.688 8.02126C63.4986 8.02126 62.6765 8.55601 62.1518 9.15976V8.19376H60.0528V17.25Z" fill="black"/>
<path d="M73.9141 4.8645L69.1564 17.25H71.3778L72.4448 14.421H77.8672L78.9516 17.25H81.208L76.4504 4.8645H73.9141ZM75.1385 7.314L77.1325 12.489H73.1794L75.1385 7.314Z" fill="black"/>
<path d="M84.8113 4.90044H82.5724V17.2859H84.8113V4.90044Z" fill="black"/>
<path d="M21.6501 9.41347C22.1793 7.84731 21.997 6.13166 21.1509 4.70709C19.8784 2.52209 17.3203 1.39797 14.8219 1.92697C13.7104 0.692156 12.1136 -0.0100626 10.4395 -1.32304e-07C7.88576 -0.00575013 5.61988 1.61575 4.83422 4.01206C3.19366 4.34341 1.77758 5.35613 0.948916 6.79147C-0.333066 8.97072 -0.0408123 11.7178 1.6719 13.5865C1.14278 15.1527 1.32498 16.8683 2.17114 18.2929C3.44364 20.4779 6.00178 21.602 8.50015 21.073C9.61086 22.3078 11.2084 23.0101 12.8825 22.9993C15.4377 23.0058 17.7043 21.3828 18.49 18.9843C20.1306 18.653 21.5466 17.6403 22.3753 16.2049C23.6558 14.0257 23.3628 11.2808 21.6509 9.41203L21.6501 9.41347ZM12.884 21.4964C11.8614 21.4978 10.871 21.1449 10.0861 20.4988C10.1218 20.4801 10.1837 20.4463 10.2238 20.4218L14.8678 17.7768C15.1054 17.6439 15.2512 17.3945 15.2497 17.1249V10.6684L17.2124 11.7861C17.2335 11.7961 17.2474 11.8163 17.2503 11.8393V17.186C17.2474 19.5637 15.2949 21.4913 12.884 21.4964ZM3.49393 17.5411C2.98158 16.6685 2.79719 15.6458 2.97283 14.6532C3.00709 14.6733 3.06758 14.7099 3.11058 14.7344L7.75458 17.3794C7.98998 17.5152 8.28151 17.5152 8.51764 17.3794L14.1871 14.1508V16.3861C14.1885 16.4091 14.1776 16.4313 14.1594 16.4457L9.4651 19.1188C7.37414 20.3061 4.70376 19.6003 3.49466 17.5411H3.49393ZM2.27171 7.544C2.78188 6.67 3.58722 6.00156 4.54634 5.65441C4.54634 5.69394 4.54415 5.76366 4.54415 5.81253V11.1033C4.5427 11.3721 4.68846 11.6215 4.92532 11.7544L10.5948 14.9823L8.63207 16.1C8.61239 16.1129 8.58761 16.1151 8.56575 16.1058L3.87073 13.4306C1.78414 12.2389 1.06844 9.60609 2.27098 7.54472L2.27171 7.544ZM18.3974 11.2448L12.728 8.01622L14.6907 6.89928C14.7104 6.88634 14.7352 6.88419 14.757 6.89353L19.452 9.56656C21.5423 10.7575 22.2587 13.3946 21.0511 15.456C20.5402 16.3286 19.7355 16.997 18.7772 17.3449V11.896C18.7793 11.6272 18.6343 11.3785 18.3982 11.2448H18.3974ZM20.3507 8.34541C20.3164 8.32456 20.2559 8.28863 20.2129 8.26419L15.5689 5.61919C15.3335 5.48334 15.042 5.48334 14.8058 5.61919L9.13641 8.84781V6.6125C9.13495 6.5895 9.14588 6.56722 9.1641 6.55284L13.8584 3.88197C15.9494 2.69244 18.6226 3.40041 19.8281 5.46322C20.3375 6.33434 20.5219 7.35425 20.3492 8.34541H20.3507ZM8.06942 12.3294L6.106 11.2118C6.08486 11.2017 6.07102 11.1816 6.0681 11.1586V5.81181C6.06956 3.43131 8.02788 1.50219 10.4417 1.50362C11.4628 1.50362 12.4511 1.85725 13.236 2.50125C13.2003 2.51994 13.1391 2.55372 13.0982 2.57816L8.45424 5.22316C8.21664 5.35613 8.07088 5.60481 8.07234 5.87434L8.06942 12.328V12.3294ZM9.13568 10.0625L11.661 8.62428L14.1864 10.0618V12.9375L11.661 14.375L9.13568 12.9375V10.0625Z" fill="black"/>
</g>
<defs>
<clipPath id="clip0_4_11409">
<rect width="86" height="23" fill="white"/>
</clipPath>
</defs>
</svg>
