<svg width="256" height="256" viewBox="0 0 256 256" fill="none" xmlns="http://www.w3.org/2000/svg">
<path d="M0 80C0 51.9974 0 37.9961 5.44967 27.3005C10.2433 17.8924 17.8924 10.2433 27.3005 5.44967C37.9961 0 51.9974 0 80 0H174C202.003 0 216.004 0 226.7 5.44967C236.108 10.2433 243.757 17.8924 248.55 27.3005C254 37.9961 254 51.9974 254 80V176C254 204.003 254 218.004 248.55 228.7C243.757 238.108 236.108 245.757 226.7 250.55C216.004 256 202.003 256 174 256H80C51.9974 256 37.9961 256 27.3005 250.55C17.8924 245.757 10.2433 238.108 5.44967 228.7C0 218.004 0 204.003 0 176V80Z" fill="url(#paint0_linear_2_710)"/>
<g filter="url(#filter0_d_2_710)">
<path fill-rule="evenodd" clip-rule="evenodd" d="M141.923 44.394C182.146 41.6459 227.387 51.1045 238.849 122.044C247.055 172.83 204.802 221.902 144.475 231.649C84.1488 241.397 28.5923 208.128 20.3867 157.342C8.77944 85.503 45.4481 63.3165 86.9914 53.1331C89.4616 50.1358 93.0376 47.9743 97.2357 47.296C100.941 46.6974 104.55 47.3478 107.607 48.9297C110.001 48.5155 112.388 48.1202 114.76 47.737C116.753 47.415 118.79 47.0948 120.865 46.7848C123.268 44.3223 126.488 42.5697 130.191 41.9713C134.462 41.2812 138.606 42.251 141.923 44.394Z" fill="white"/>
</g>
<g filter="url(#filter1_d_2_710)">
<path d="M101.757 28.0214C105.507 39.4146 106.803 45.7501 108.169 55.8923C93.8178 58.2111 75.5099 46.1703 73.3489 44.6105C71.188 43.0507 65.8296 43.6437 66.4738 47.6303C67.1179 51.6168 73.2677 60.986 94.3865 68.4821C82.7542 75.8157 70.5021 74.2501 67.0471 74.8084C64.3465 74.972 59.3272 79.3509 63.2939 81.9598C70.617 86.7761 89.5644 85.8964 100.254 81.1694C100.058 85.019 95.8941 94.6911 94.9703 102.476C94.0465 110.261 100.03 108.476 102.653 106.144C105.276 103.811 110.728 102.112 121.019 79.7233C138.608 94.0621 156.328 90.6535 160.846 89.9235C165.364 89.1935 165.877 83.9292 162.696 82.8069C159.515 81.6846 153.496 81.5663 143.61 76.0733C164.434 71.6179 171.333 63.6854 173.561 60.5983C175.79 57.5112 172.179 53.7313 168.013 54.9499C163.846 56.1685 153.578 65.1907 138.77 61.3109C153.686 52.356 158.081 40.7376 159.965 35.5243C161.85 30.3111 153.85 28.0584 152.239 31.5912C150.629 35.124 136.341 51.3405 122.521 53.5735C120.744 45.952 119 31.7804 118.86 24.1671C118.821 21.997 104.971 22.5934 101.757 28.0214Z" fill="#00428E"/>
</g>
<defs>
<filter id="filter0_d_2_710" x="3.21131" y="30.7516" width="251.657" height="221.593" filterUnits="userSpaceOnUse" color-interpolation-filters="sRGB">
<feFlood flood-opacity="0" result="BackgroundImageFix"/>
<feColorMatrix in="SourceAlpha" type="matrix" values="0 0 0 0 0 0 0 0 0 0 0 0 0 0 0 0 0 0 127 0" result="hardAlpha"/>
<feOffset dy="4"/>
<feGaussianBlur stdDeviation="7.5"/>
<feComposite in2="hardAlpha" operator="out"/>
<feColorMatrix type="matrix" values="0 0 0 0 0 0 0 0 0 0 0 0 0 0 0 0 0 0 0.15 0"/>
<feBlend mode="normal" in2="BackgroundImageFix" result="effect1_dropShadow_2_710"/>
<feBlend mode="normal" in="SourceGraphic" in2="effect1_dropShadow_2_710" result="shape"/>
</filter>
<filter id="filter1_d_2_710" x="57.8231" y="22.9936" width="120.419" height="93.1443" filterUnits="userSpaceOnUse" color-interpolation-filters="sRGB">
<feFlood flood-opacity="0" result="BackgroundImageFix"/>
<feColorMatrix in="SourceAlpha" type="matrix" values="0 0 0 0 0 0 0 0 0 0 0 0 0 0 0 0 0 0 127 0" result="hardAlpha"/>
<feOffset dy="4"/>
<feGaussianBlur stdDeviation="2"/>
<feComposite in2="hardAlpha" operator="out"/>
<feColorMatrix type="matrix" values="0 0 0 0 0 0 0 0 0 0 0 0 0 0 0 0 0 0 0.05 0"/>
<feBlend mode="normal" in2="BackgroundImageFix" result="effect1_dropShadow_2_710"/>
<feBlend mode="normal" in="SourceGraphic" in2="effect1_dropShadow_2_710" result="shape"/>
</filter>
<linearGradient id="paint0_linear_2_710" x1="127" y1="0" x2="127" y2="256" gradientUnits="userSpaceOnUse">
<stop stop-color="#66ACFC"/>
<stop offset="1" stop-color="#0A77F4"/>
</linearGradient>
</defs>
</svg>
